# xmcd
#
# Track frame offsets:
#	150
#	16627
#	32987
#	50205
#
# Disc length: 885 seconds
#
# Revision: 0
# Processed by: cddbd v1.5.2PL0 Copyright (c) Steve Scherf et al.
# Submitted via: audiograbber 1.83.01
#
DISCID=2c037304
DTITLE=LeAnn Rimes - We can
DYEAR=1999
DGENRE=Pop
TTITLE0=We can
TTITLE1=We can (Tees Freeze radio edit)
TTITLE2=We can (Wildlife radio edit)
TTITLE3=We can (American Mix)
EXTD=
EXTT0=
EXTT1=
EXTT2=
EXTT3=
PLAYORDER=
